<?xml version="1.0"?>
<svg width="715" height="267" viewBox="0 0 715 267" fill="none" xmlns="http://www.w3.org/2000/svg">
<path d="M37.9693 109.086C37.9693 109.086 54.9107 134.148 86.3737 134.148C102.623 134.148 120.948 127.465 120.948 115.101C120.948 101.734 109.192 95.0509 84.6446 90.3721C50.4161 83.6892 26.214 70.6562 26.214 41.5838C26.214 25.7644 37.7826 10.1253 57.1302 2.30579C24.6512 13.32 1.36185 43.2146 1.36185 78.3691C1.36185 96.5944 7.6198 113.403 18.1789 126.903L37.9693 109.086Z" fill="#4B54A1"></path>
<path d="M143.484 21.1666L125.097 39.5792C125.097 39.5792 109.193 22.5367 84.9908 22.5367C64.5917 22.5367 54.5654 32.2275 54.5654 42.2526C54.5654 53.9484 67.012 60.2977 93.2888 65.6445C123.714 71.9934 149.645 83.0211 149.645 114.433C149.645 123.128 146.866 130.593 142.164 136.809C158.157 122.125 168.129 101.374 168.129 78.3696C168.129 56.0069 158.704 35.7697 143.484 21.1666Z" fill="#76C094"></path>
<path d="M261.508 105.785C273.54 105.785 280.178 100.438 280.178 94.9577C280.178 87.205 269.391 85.1997 257.635 83.1949C244.912 81.1896 217.529 76.6449 217.529 53.2534C217.529 29.9953 239.795 23.713 257.635 23.713C275.337 23.713 286.54 28.926 297.603 36.8124L285.433 52.8524C276.72 46.8374 266.625 42.8274 256.806 42.8274C250.444 42.8274 239.38 44.6987 239.38 52.4514C239.38 59.4018 250.306 61.0061 259.433 62.8774C275.891 66.2188 302.029 68.2242 302.029 94.4231C302.029 114.74 285.71 124.765 261.784 124.765C239.933 124.765 225.55 117.28 216.146 109.527L227.763 93.3534C235.093 99.2348 249.891 105.785 261.508 105.785Z" fill="white"></path>
<path d="M343.241 56.7284C346.423 52.5847 355.55 47.7727 366.338 47.7727C390.401 47.7727 404.508 65.0157 404.508 86.1354C404.508 107.255 390.401 124.498 366.338 124.498C355.274 124.498 347.114 120.22 343.241 115.275V146.553H322.774V49.3768H343.241V56.7284ZM363.295 106.988C376.433 106.988 384.178 98.1652 384.178 86.1354C384.178 74.5061 376.019 65.4167 363.295 65.4167C350.433 65.4167 342.412 73.3029 342.412 86.1354C342.412 98.2987 350.433 106.988 363.295 106.988Z" fill="white"></path>
<path d="M426.774 93.0864V49.6443H447.657V93.0864C447.657 104.314 454.572 107.79 462.455 107.79C468.264 107.79 477.53 104.448 476.976 88.5418V49.6443H497.721V122.894H476.976V116.611C471.998 121.557 464.668 124.498 456.647 124.498C434.795 124.498 426.774 112.067 426.774 93.0864Z" fill="white"></path>
<path d="M543.774 90.413V122.894H523.168V49.3773H543.774V59.1348C551.519 49.2436 564.38 47.9069 569.776 48.0406V67.5561C564.795 67.1551 543.774 68.0907 543.774 90.413Z" fill="white"></path>
<path d="M591.35 122.894V25.1831H613.198V122.894H591.35Z" fill="white"></path>
<path d="M684.147 43.4955V122.894H662.158V43.4955H632.701V25.1831H713.462V43.4955H684.147Z" fill="white"></path>
</svg>
