<?xml version="1.0"?>
<svg width="1366" height="768" viewBox="0 0 1366 768" fill="none" xmlns="http://www.w3.org/2000/svg"> <rect width="1366" height="768" fill="#242424"></rect> <path d="M1014 348.521C1003.03 368.772 984.931 384.046 959.7 394.343C934.69 404.526 901.562 409.617 860.316 409.617L794.827 409.617C741.515 409.617 714.859 421.745 714.859 446L667.141 446C667.141 421.745 640.595 409.617 587.502 409.617L519.051 409.617C478.903 409.388 446.542 404.297 421.97 394.343C397.179 384.275 379.189 369.001 368 348.521L405.845 342C420.544 365.912 458.828 377.868 520.697 377.868L587.173 377.868C636.975 377.868 671.639 387.421 691.165 406.528C710.91 387.421 745.903 377.868 796.144 377.868L863.936 377.868C924.269 377.525 961.675 365.569 976.155 342L1014 348.521Z" fill="#25FD2B"></path> <path d="M300.692 274C299.722 272.108 299.019 269.756 298.583 266.943C293.49 272.618 286.869 275.455 278.721 275.455C271.009 275.455 264.606 273.224 259.514 268.762C254.469 264.299 251.947 258.673 251.947 251.883C251.947 243.54 255.027 237.138 261.187 232.676C267.395 228.214 276.344 225.958 288.033 225.91H297.709V221.399C297.709 217.761 296.764 214.851 294.872 212.668C293.029 210.486 290.095 209.395 286.069 209.395C282.528 209.395 279.739 210.243 277.702 211.941C275.714 213.639 274.719 215.967 274.719 218.925H253.693C253.693 214.366 255.1 210.146 257.913 206.266C260.726 202.386 264.703 199.354 269.845 197.172C274.986 194.941 280.758 193.825 287.16 193.825C296.861 193.825 304.548 196.275 310.223 201.173C315.946 206.024 318.808 212.862 318.808 221.69V255.812C318.857 263.281 319.899 268.931 321.937 272.763V274H300.692ZM283.304 259.376C286.408 259.376 289.27 258.697 291.889 257.339C294.508 255.933 296.448 254.065 297.709 251.737V238.205H289.852C279.327 238.205 273.725 241.843 273.046 249.118L272.973 250.355C272.973 252.974 273.895 255.132 275.738 256.83C277.581 258.528 280.103 259.376 283.304 259.376ZM1082.11 244.244L1096.66 195.28H1119.21L1087.56 286.223L1085.82 290.37C1081.11 300.652 1073.35 305.793 1062.54 305.793C1059.48 305.793 1056.38 305.333 1053.22 304.411V288.478L1056.43 288.551C1060.4 288.551 1063.36 287.944 1065.3 286.732C1067.29 285.519 1068.84 283.507 1069.96 280.693L1072.43 274.218L1044.86 195.28H1067.48L1082.11 244.244Z" fill="white"></path> <path d="M370.679 258.503C374.559 258.503 377.712 257.436 380.137 255.302C382.562 253.168 383.823 250.331 383.92 246.79H403.636C403.588 252.125 402.133 257.024 399.271 261.486C396.409 265.9 392.481 269.344 387.485 271.817C382.538 274.243 377.057 275.455 371.043 275.455C359.79 275.455 350.914 271.89 344.415 264.76C337.915 257.582 334.666 247.687 334.666 235.077V233.694C334.666 221.569 337.891 211.892 344.342 204.666C350.793 197.439 359.644 193.825 370.897 193.825C380.743 193.825 388.625 196.638 394.542 202.265C400.508 207.842 403.539 215.288 403.636 224.6H383.92C383.823 220.526 382.562 217.228 380.137 214.706C377.712 212.135 374.51 210.85 370.533 210.85C365.634 210.85 361.924 212.644 359.402 216.233C356.928 219.774 355.691 225.546 355.691 233.549V235.731C355.691 243.831 356.928 249.652 359.402 253.192C361.876 256.733 365.634 258.503 370.679 258.503ZM451.36 258.503C455.24 258.503 458.393 257.436 460.818 255.302C463.243 253.168 464.504 250.331 464.601 246.79H484.317C484.269 252.125 482.814 257.024 479.952 261.486C477.091 265.9 473.162 269.344 468.166 271.817C463.219 274.243 457.738 275.455 451.724 275.455C440.471 275.455 431.595 271.89 425.096 264.76C418.596 257.582 415.347 247.687 415.347 235.077V233.694C415.347 221.569 418.572 211.892 425.023 204.666C431.474 197.439 440.326 193.825 451.578 193.825C461.424 193.825 469.306 196.638 475.223 202.265C481.189 207.842 484.22 215.288 484.317 224.6H464.601C464.504 220.526 463.243 217.228 460.818 214.706C458.393 212.135 455.192 210.85 451.214 210.85C446.316 210.85 442.605 212.644 440.083 216.233C437.609 219.774 436.373 225.546 436.373 233.549V235.731C436.373 243.831 437.609 249.652 440.083 253.192C442.557 256.733 446.316 258.503 451.36 258.503ZM535.533 275.455C523.99 275.455 514.58 271.914 507.305 264.833C500.078 257.752 496.464 248.318 496.464 236.532V234.495C496.464 226.589 497.992 219.532 501.048 213.323C504.104 207.066 508.42 202.265 513.998 198.918C519.624 195.523 526.027 193.825 533.205 193.825C543.973 193.825 552.436 197.22 558.596 204.011C564.805 210.801 567.909 220.429 567.909 232.894V241.479H517.781C518.46 246.62 520.497 250.743 523.893 253.847C527.336 256.951 531.677 258.503 536.916 258.503C545.016 258.503 551.345 255.569 555.904 249.7L566.235 261.268C563.083 265.73 558.815 269.222 553.431 271.745C548.047 274.218 542.081 275.455 535.533 275.455ZM533.132 210.85C528.961 210.85 525.566 212.256 522.947 215.069C520.376 217.882 518.727 221.908 518 227.146H547.247V225.473C547.15 220.817 545.889 217.228 543.463 214.706C541.038 212.135 537.595 210.85 533.132 210.85ZM625.527 252.247C625.527 249.676 624.242 247.663 621.671 246.208C619.149 244.704 615.075 243.371 609.448 242.207C590.726 238.278 581.365 230.323 581.365 218.343C581.365 211.359 584.251 205.539 590.023 200.882C595.843 196.178 603.434 193.825 612.795 193.825C622.787 193.825 630.765 196.178 636.731 200.882C642.745 205.587 645.753 211.698 645.753 219.216H624.727C624.727 216.209 623.757 213.736 621.816 211.795C619.876 209.807 616.845 208.812 612.722 208.812C609.182 208.812 606.441 209.613 604.501 211.213C602.561 212.814 601.591 214.851 601.591 217.325C601.591 219.653 602.682 221.544 604.865 223C607.096 224.406 610.831 225.643 616.069 226.71C621.307 227.729 625.721 228.893 629.31 230.202C640.417 234.276 645.971 241.333 645.971 251.374C645.971 258.552 642.891 264.372 636.731 268.834C630.571 273.248 622.617 275.455 612.868 275.455C606.271 275.455 600.403 274.291 595.261 271.963C590.169 269.586 586.167 266.361 583.257 262.287C580.347 258.164 578.892 253.726 578.892 248.973H598.826C599.02 252.707 600.403 255.569 602.973 257.558C605.544 259.546 608.988 260.541 613.304 260.541C617.33 260.541 620.361 259.789 622.399 258.285C624.484 256.733 625.527 254.72 625.527 252.247ZM705.19 252.247C705.19 249.676 703.904 247.663 701.334 246.208C698.811 244.704 694.737 243.371 689.111 242.207C670.389 238.278 661.028 230.323 661.028 218.343C661.028 211.359 663.914 205.539 669.686 200.882C675.506 196.178 683.097 193.825 692.458 193.825C702.449 193.825 710.428 196.178 716.394 200.882C722.408 205.587 725.415 211.698 725.415 219.216H704.389C704.389 216.209 703.419 213.736 701.479 211.795C699.539 209.807 696.508 208.812 692.385 208.812C688.844 208.812 686.104 209.613 684.164 211.213C682.224 212.814 681.254 214.851 681.254 217.325C681.254 219.653 682.345 221.544 684.527 223C686.759 224.406 690.493 225.643 695.732 226.71C700.97 227.729 705.384 228.893 708.973 230.202C720.08 234.276 725.633 241.333 725.633 251.374C725.633 258.552 722.553 264.372 716.394 268.834C710.234 273.248 702.279 275.455 692.53 275.455C685.934 275.455 680.065 274.291 674.924 271.963C669.831 269.586 665.83 266.361 662.92 262.287C660.009 258.164 658.554 253.726 658.554 248.973H678.489C678.683 252.707 680.065 255.569 682.636 257.558C685.206 259.546 688.65 260.541 692.967 260.541C696.993 260.541 700.024 259.789 702.061 258.285C704.147 256.733 705.19 254.72 705.19 252.247ZM764.408 274H743.31V195.28H764.408V274ZM742.073 174.909C742.073 171.757 743.116 169.162 745.201 167.125C747.335 165.087 750.221 164.069 753.859 164.069C757.448 164.069 760.31 165.087 762.444 167.125C764.578 169.162 765.645 171.757 765.645 174.909C765.645 178.11 764.554 180.729 762.371 182.767C760.237 184.804 757.4 185.822 753.859 185.822C750.318 185.822 747.457 184.804 745.274 182.767C743.14 180.729 742.073 178.11 742.073 174.909ZM855.712 235.368C855.712 247.978 853.02 257.824 847.636 264.906C842.252 271.939 834.734 275.455 825.082 275.455C816.546 275.455 809.731 272.181 804.638 265.633L803.693 274H784.776V162.25H805.802V202.337C810.653 196.663 817.031 193.825 824.937 193.825C834.54 193.825 842.058 197.366 847.49 204.447C852.971 211.48 855.712 221.399 855.712 234.204V235.368ZM834.686 233.84C834.686 225.885 833.425 220.089 830.902 216.452C828.38 212.765 824.621 210.922 819.626 210.922C812.932 210.922 808.325 213.663 805.802 219.144V250.209C808.373 255.739 813.029 258.503 819.771 258.503C826.561 258.503 831.024 255.157 833.158 248.463C834.176 245.262 834.686 240.388 834.686 233.84ZM893.904 274H872.806V195.28H893.904V274ZM871.569 174.909C871.569 171.757 872.612 169.162 874.697 167.125C876.832 165.087 879.717 164.069 883.355 164.069C886.944 164.069 889.806 165.087 891.94 167.125C894.074 169.162 895.141 171.757 895.141 174.909C895.141 178.11 894.05 180.729 891.867 182.767C889.733 184.804 886.896 185.822 883.355 185.822C879.814 185.822 876.953 184.804 874.77 182.767C872.636 180.729 871.569 178.11 871.569 174.909ZM936.463 274H915.364V162.25H936.463V274ZM979.021 274H957.922V195.28H979.021V274ZM956.685 174.909C956.685 171.757 957.728 169.162 959.814 167.125C961.948 165.087 964.834 164.069 968.471 164.069C972.061 164.069 974.922 165.087 977.056 167.125C979.19 169.162 980.258 171.757 980.258 174.909C980.258 178.11 979.166 180.729 976.984 182.767C974.849 184.804 972.012 185.822 968.471 185.822C964.931 185.822 962.069 184.804 959.886 182.767C957.752 180.729 956.685 178.11 956.685 174.909ZM1024.56 175.928V195.28H1038.02V210.704H1024.56V249.991C1024.56 252.901 1025.12 254.987 1026.24 256.248C1027.35 257.509 1029.48 258.14 1032.64 258.14C1034.97 258.14 1037.03 257.97 1038.82 257.63V273.563C1034.7 274.825 1030.45 275.455 1026.09 275.455C1011.34 275.455 1003.83 268.01 1003.54 253.12V210.704H992.041V195.28H1003.54V175.928H1024.56Z" fill="#25FD2B"></path> <path d="M584.368 618C583.476 616.261 582.83 614.098 582.428 611.511C577.746 616.729 571.658 619.338 564.166 619.338C557.075 619.338 551.188 617.286 546.506 613.184C541.868 609.081 539.549 603.908 539.549 597.664C539.549 589.993 542.381 584.107 548.044 580.004C553.753 575.901 561.981 573.827 572.729 573.783H581.625V569.635C581.625 566.291 580.756 563.615 579.017 561.608C577.322 559.601 574.624 558.598 570.922 558.598C567.667 558.598 565.103 559.378 563.229 560.939C561.401 562.5 560.487 564.64 560.487 567.361H541.154C541.154 563.169 542.448 559.289 545.034 555.721C547.621 552.153 551.278 549.366 556.005 547.359C560.732 545.308 566.039 544.282 571.926 544.282C580.845 544.282 587.914 546.534 593.131 551.039C598.394 555.498 601.025 561.786 601.025 569.903V601.276C601.069 608.144 602.028 613.34 603.901 616.863V618H584.368ZM568.38 604.554C571.235 604.554 573.866 603.93 576.274 602.681C578.682 601.388 580.466 599.671 581.625 597.53V585.088H574.401C564.723 585.088 559.573 588.433 558.948 595.122L558.881 596.259C558.881 598.667 559.729 600.652 561.423 602.213C563.118 603.774 565.437 604.554 568.38 604.554ZM800.237 590.64L813.616 545.62H834.353L805.254 629.238L803.648 633.051C799.323 642.506 792.187 647.233 782.242 647.233C779.433 647.233 776.578 646.809 773.68 645.962V631.312L776.623 631.379C780.28 631.379 783 630.821 784.784 629.707C786.613 628.592 788.04 626.741 789.065 624.154L791.34 618.201L765.987 545.62H786.791L800.237 590.64Z" fill="white"></path> <path d="M662.033 618H642.7V543.479L619.622 550.637V534.917L659.959 520.468H662.033V618ZM740.701 618H721.368V543.479L698.29 550.637V534.917L738.627 520.468H740.701V618Z" fill="#25FD2B"></path> </svg> 