<?xml version="1.0"?>
<svg width="500" height="500" viewBox="0 0 500 500" fill="none" xmlns="http://www.w3.org/2000/svg">
<path d="M250 500C388.071 500 500 388.071 500 250C500 111.929 388.071 0 250 0C111.929 0 0 111.929 0 250C0 388.071 111.929 500 250 500Z" fill="#FF7F00"></path>
<path d="M257.01 98.7182C272.121 98.7182 284.37 86.4691 284.37 71.3591C284.37 56.2491 272.121 44 257.01 44C241.9 44 229.651 56.2491 229.651 71.3591C229.651 86.4691 241.9 98.7182 257.01 98.7182Z" fill="white"></path>
<path d="M375.737 98.6907C375.375 96.9313 374.67 95.2605 373.662 93.7737C372.654 92.2869 371.363 91.0133 369.863 90.0256C368.362 89.038 366.682 88.3557 364.918 88.0177C363.153 87.6797 361.34 87.6926 359.581 88.0558L257.01 109.203L154.44 88.0558C152.681 87.6926 150.867 87.6796 149.103 88.0176C147.338 88.3556 145.658 89.0379 144.157 90.0255C142.657 91.0131 141.366 92.2867 140.358 93.7736C139.349 95.2604 138.644 96.9313 138.282 98.6907C137.919 100.45 137.906 102.264 138.245 104.028C138.583 105.792 139.265 107.473 140.253 108.973C141.241 110.474 142.515 111.765 144.002 112.773C145.488 113.781 147.159 114.486 148.919 114.848L225.548 130.649V214.165L203.952 317.521C203.584 319.28 203.566 321.093 203.9 322.858C204.233 324.623 204.911 326.305 205.894 327.808C206.878 329.311 208.148 330.606 209.632 331.618C211.116 332.63 212.785 333.34 214.543 333.707C215.487 333.903 216.427 334 217.357 334C220.496 333.995 223.539 332.911 225.974 330.929C228.409 328.948 230.089 326.189 230.732 323.116L252.756 217.723C253.167 215.545 254.747 213.622 257.014 213.622C259.28 213.622 260.906 215.545 261.27 217.723L283.296 323.116C284.039 326.666 286.161 329.777 289.197 331.763C292.232 333.749 295.932 334.448 299.483 333.707C301.242 333.34 302.91 332.63 304.394 331.618C305.878 330.606 307.148 329.311 308.131 327.808C309.114 326.305 309.792 324.623 310.125 322.858C310.457 321.093 310.439 319.279 310.071 317.521L288.476 214.158V130.651L365.109 114.85C366.868 114.487 368.538 113.781 370.025 112.773C371.511 111.764 372.784 110.473 373.771 108.972C374.758 107.471 375.439 105.791 375.777 104.027C376.114 102.263 376.101 100.45 375.737 98.6907Z" fill="white"></path>
<path d="M188.07 380.93L187.836 380.891L172.602 423H164.945L149.789 381.047L149.555 381.086L150.648 406.047V414.992L156.742 416.164V423H133.188V416.164L139.242 414.992V374.172L133.188 373V366.125H139.242H154.125L168.617 408.039H168.852L183.461 366.125H204.477V373L198.383 374.172V414.992L204.477 416.164V423H180.922V416.164L186.977 414.992V406.047L188.07 380.93ZM210.9 416.164L216.408 414.992V388.781L210.314 387.609V380.734H227.814V414.992L233.283 416.164V423H210.9V416.164ZM227.814 370.617H216.408V362.062H227.814V370.617ZM238.808 416.164L244.277 414.992V388.781L238.222 387.609V380.734H254.902L255.409 386.789C256.816 384.628 258.547 382.948 260.605 381.75C262.662 380.552 264.967 379.953 267.519 379.953C271.79 379.953 275.123 381.294 277.519 383.977C279.915 386.659 281.113 390.865 281.113 396.594V414.992L286.581 416.164V423H264.784V416.164L269.667 414.992V396.633C269.667 393.794 269.094 391.789 267.948 390.617C266.803 389.419 265.071 388.82 262.753 388.82C261.243 388.82 259.889 389.133 258.691 389.758C257.493 390.357 256.49 391.216 255.683 392.336V414.992L260.292 416.164V423H238.808V416.164ZM327.106 395.266H319.45L318.239 389.992C317.458 389.367 316.468 388.846 315.27 388.43C314.098 388.013 312.796 387.805 311.364 387.805C309.359 387.805 307.77 388.26 306.598 389.172C305.427 390.057 304.841 391.177 304.841 392.531C304.841 393.807 305.401 394.875 306.52 395.734C307.64 396.568 309.88 397.31 313.239 397.961C318.473 399.003 322.354 400.539 324.88 402.57C327.406 404.576 328.669 407.349 328.669 410.891C328.669 414.693 327.028 417.805 323.747 420.227C320.492 422.622 316.195 423.82 310.856 423.82C307.601 423.82 304.606 423.352 301.872 422.414C299.164 421.451 296.755 420.083 294.645 418.312L294.528 408.82H302.497L304.059 414.328C304.736 414.901 305.661 415.331 306.833 415.617C308.005 415.878 309.229 416.008 310.505 416.008C312.822 416.008 314.58 415.591 315.778 414.758C317.002 413.924 317.614 412.792 317.614 411.359C317.614 410.109 317.002 409.029 315.778 408.117C314.554 407.206 312.302 406.398 309.02 405.695C304.046 404.68 300.283 403.182 297.731 401.203C295.205 399.198 293.942 396.477 293.942 393.039C293.942 389.497 295.401 386.451 298.317 383.898C301.234 381.32 305.387 380.031 310.778 380.031C314.059 380.031 317.158 380.474 320.075 381.359C323.018 382.245 325.322 383.378 326.989 384.758L327.106 395.266ZM334.975 368.938V362.062H352.436V397.375H354.975L361.538 388.117L357.827 387.609V380.734H378.608V387.609L373.608 388.742L365.991 399.211L376.655 415.266L380.991 416.164V423H361.459V416.164L363.803 415.773L357.319 405.305H352.436V414.992L357.358 416.164V423H335.561V416.164L341.069 414.992V370.109L334.975 368.938Z" fill="white"></path>
</svg>
