<?xml version="1.0"?>
<svg width="126" height="47" viewBox="0 0 126 47" fill="none" xmlns="http://www.w3.org/2000/svg">
<path d="M12.992 31.214L10.22 41H9.12801L6.66401 32.656L4.14401 41L3.08001 41.014L0.364014 31.214H1.41401L3.65401 39.796L6.16001 31.214H7.25201L9.68801 39.796L11.942 31.214H12.992Z" fill="white"></path>
<path d="M21.5471 36.786C21.5471 37.122 21.5378 37.3787 21.5191 37.556H15.1771C15.2051 38.1347 15.3451 38.6294 15.5971 39.04C15.8491 39.4507 16.1804 39.7634 16.5911 39.978C17.0018 40.1834 17.4498 40.286 17.9351 40.286C18.5698 40.286 19.1018 40.132 19.5311 39.824C19.9698 39.516 20.2591 39.1007 20.3991 38.578H21.4351C21.2484 39.3247 20.8471 39.936 20.2311 40.412C19.6244 40.8787 18.8591 41.112 17.9351 41.112C17.2164 41.112 16.5724 40.9534 16.0031 40.636C15.4338 40.3094 14.9858 39.852 14.6591 39.264C14.3418 38.6667 14.1831 37.9714 14.1831 37.178C14.1831 36.3847 14.3418 35.6894 14.6591 35.092C14.9764 34.4947 15.4198 34.0374 15.9891 33.72C16.5584 33.4027 17.2071 33.244 17.9351 33.244C18.6631 33.244 19.2978 33.4027 19.8391 33.72C20.3898 34.0374 20.8098 34.4667 21.0991 35.008C21.3978 35.54 21.5471 36.1327 21.5471 36.786ZM20.5531 36.758C20.5624 36.1887 20.4458 35.7034 20.2031 35.302C19.9698 34.9007 19.6478 34.5974 19.2371 34.392C18.8264 34.1867 18.3784 34.084 17.8931 34.084C17.1651 34.084 16.5444 34.3174 16.0311 34.784C15.5178 35.2507 15.2331 35.9087 15.1771 36.758H20.5531Z" fill="white"></path>
<path d="M24.446 35.05C24.698 34.518 25.0853 34.084 25.608 33.748C26.14 33.412 26.7653 33.244 27.484 33.244C28.184 33.244 28.8093 33.4074 29.36 33.734C29.9107 34.0514 30.34 34.5087 30.648 35.106C30.9653 35.694 31.124 36.38 31.124 37.164C31.124 37.948 30.9653 38.6387 30.648 39.236C30.34 39.8334 29.906 40.2954 29.346 40.622C28.7953 40.9487 28.1747 41.112 27.484 41.112C26.756 41.112 26.126 40.9487 25.594 40.622C25.0713 40.286 24.6887 39.852 24.446 39.32V41H23.48V30.64H24.446V35.05ZM30.13 37.164C30.13 36.5294 30.004 35.9834 29.752 35.526C29.5093 35.0594 29.1733 34.7047 28.744 34.462C28.3147 34.2194 27.8293 34.098 27.288 34.098C26.7653 34.098 26.2847 34.224 25.846 34.476C25.4167 34.728 25.076 35.0874 24.824 35.554C24.572 36.0207 24.446 36.562 24.446 37.178C24.446 37.794 24.572 38.3354 24.824 38.802C25.076 39.2687 25.4167 39.628 25.846 39.88C26.2847 40.132 26.7653 40.258 27.288 40.258C27.8293 40.258 28.3147 40.1367 28.744 39.894C29.1733 39.642 29.5093 39.2827 29.752 38.816C30.004 38.34 30.13 37.7894 30.13 37.164Z" fill="white"></path>
<path d="M37.8134 35.4V36.226H32.3674V35.4H37.8134Z" fill="white"></path>
<path d="M40.019 37.164C40.019 36.38 40.173 35.694 40.481 35.106C40.7984 34.5087 41.2324 34.0514 41.783 33.734C42.343 33.4074 42.973 33.244 43.673 33.244C44.401 33.244 45.0264 33.412 45.549 33.748C46.081 34.084 46.4637 34.5134 46.697 35.036V33.356H47.677V41H46.697V39.306C46.4544 39.8287 46.067 40.2627 45.535 40.608C45.0124 40.944 44.387 41.112 43.659 41.112C42.9684 41.112 42.343 40.9487 41.783 40.622C41.2324 40.2954 40.7984 39.8334 40.481 39.236C40.173 38.6387 40.019 37.948 40.019 37.164ZM46.697 37.178C46.697 36.562 46.571 36.0207 46.319 35.554C46.067 35.0874 45.7217 34.728 45.283 34.476C44.8537 34.224 44.3777 34.098 43.855 34.098C43.3137 34.098 42.8284 34.2194 42.399 34.462C41.9697 34.7047 41.629 35.0594 41.377 35.526C41.1344 35.9834 41.013 36.5294 41.013 37.164C41.013 37.7894 41.1344 38.34 41.377 38.816C41.629 39.2827 41.9697 39.642 42.399 39.894C42.8284 40.1367 43.3137 40.258 43.855 40.258C44.3777 40.258 44.8537 40.132 45.283 39.88C45.7217 39.628 46.067 39.2687 46.319 38.802C46.571 38.3354 46.697 37.794 46.697 37.178Z" fill="white"></path>
<path d="M49.6064 37.178C49.6064 36.3847 49.7651 35.694 50.0824 35.106C50.3997 34.5087 50.8384 34.0514 51.3984 33.734C51.9584 33.4074 52.5977 33.244 53.3164 33.244C54.2591 33.244 55.0337 33.4774 55.6404 33.944C56.2564 34.4107 56.6531 35.0454 56.8304 35.848H55.7804C55.6497 35.2974 55.3651 34.868 54.9264 34.56C54.4971 34.2427 53.9604 34.084 53.3164 34.084C52.8031 34.084 52.3411 34.2007 51.9304 34.434C51.5197 34.6674 51.1931 35.0174 50.9504 35.484C50.7171 35.9414 50.6004 36.506 50.6004 37.178C50.6004 37.85 50.7171 38.4194 50.9504 38.886C51.1931 39.3527 51.5197 39.7027 51.9304 39.936C52.3411 40.1694 52.8031 40.286 53.3164 40.286C53.9604 40.286 54.4971 40.132 54.9264 39.824C55.3651 39.5067 55.6497 39.068 55.7804 38.508H56.8304C56.6531 39.292 56.2564 39.922 55.6404 40.398C55.0244 40.874 54.2497 41.112 53.3164 41.112C52.5977 41.112 51.9584 40.9534 51.3984 40.636C50.8384 40.3094 50.3997 39.852 50.0824 39.264C49.7651 38.6667 49.6064 37.9714 49.6064 37.178Z" fill="white"></path>
<path d="M58.3323 37.178C58.3323 36.3847 58.491 35.694 58.8083 35.106C59.1257 34.5087 59.5643 34.0514 60.1243 33.734C60.6843 33.4074 61.3237 33.244 62.0423 33.244C62.985 33.244 63.7597 33.4774 64.3663 33.944C64.9823 34.4107 65.379 35.0454 65.5563 35.848H64.5063C64.3757 35.2974 64.091 34.868 63.6523 34.56C63.223 34.2427 62.6863 34.084 62.0423 34.084C61.529 34.084 61.067 34.2007 60.6563 34.434C60.2457 34.6674 59.919 35.0174 59.6763 35.484C59.443 35.9414 59.3263 36.506 59.3263 37.178C59.3263 37.85 59.443 38.4194 59.6763 38.886C59.919 39.3527 60.2457 39.7027 60.6563 39.936C61.067 40.1694 61.529 40.286 62.0423 40.286C62.6863 40.286 63.223 40.132 63.6523 39.824C64.091 39.5067 64.3757 39.068 64.5063 38.508H65.5563C65.379 39.292 64.9823 39.922 64.3663 40.398C63.7503 40.874 62.9757 41.112 62.0423 41.112C61.3237 41.112 60.6843 40.9534 60.1243 40.636C59.5643 40.3094 59.1257 39.852 58.8083 39.264C58.491 38.6667 58.3323 37.9714 58.3323 37.178Z" fill="white"></path>
<path d="M74.4224 36.786C74.4224 37.122 74.413 37.3787 74.3944 37.556H68.0524C68.0804 38.1347 68.2204 38.6294 68.4724 39.04C68.7244 39.4507 69.0557 39.7634 69.4664 39.978C69.877 40.1834 70.325 40.286 70.8104 40.286C71.445 40.286 71.977 40.132 72.4064 39.824C72.845 39.516 73.1344 39.1007 73.2744 38.578H74.3104C74.1237 39.3247 73.7224 39.936 73.1064 40.412C72.4997 40.8787 71.7344 41.112 70.8104 41.112C70.0917 41.112 69.4477 40.9534 68.8784 40.636C68.309 40.3094 67.861 39.852 67.5344 39.264C67.217 38.6667 67.0583 37.9714 67.0583 37.178C67.0583 36.3847 67.217 35.6894 67.5344 35.092C67.8517 34.4947 68.295 34.0374 68.8644 33.72C69.4337 33.4027 70.0824 33.244 70.8104 33.244C71.5384 33.244 72.173 33.4027 72.7144 33.72C73.265 34.0374 73.6849 34.4667 73.9743 35.008C74.2729 35.54 74.4224 36.1327 74.4224 36.786ZM73.4284 36.758C73.4377 36.1887 73.321 35.7034 73.0784 35.302C72.845 34.9007 72.523 34.5974 72.1124 34.392C71.7017 34.1867 71.2537 34.084 70.7684 34.084C70.0404 34.084 69.4197 34.3174 68.9064 34.784C68.393 35.2507 68.1084 35.9087 68.0524 36.758H73.4284Z" fill="white"></path>
<path d="M78.9873 41.112C78.1099 41.112 77.3913 40.9114 76.8313 40.51C76.2806 40.0994 75.9726 39.544 75.9072 38.844H76.9153C76.9619 39.2734 77.1626 39.6234 77.5173 39.894C77.8813 40.1554 78.3666 40.286 78.9733 40.286C79.5053 40.286 79.9206 40.16 80.2193 39.908C80.5273 39.656 80.6813 39.3434 80.6813 38.97C80.6813 38.7087 80.5973 38.494 80.4293 38.326C80.2613 38.158 80.0466 38.0274 79.7852 37.934C79.5332 37.8314 79.1879 37.724 78.7493 37.612C78.1799 37.4627 77.7179 37.3134 77.3633 37.164C77.0086 37.0147 76.7052 36.7954 76.4532 36.506C76.2106 36.2074 76.0892 35.8107 76.0892 35.316C76.0892 34.9427 76.2012 34.5974 76.4252 34.28C76.6492 33.9627 76.9666 33.7107 77.3773 33.524C77.7879 33.3374 78.2546 33.244 78.7773 33.244C79.5986 33.244 80.2613 33.454 80.7653 33.874C81.2693 34.2847 81.5399 34.854 81.5772 35.582H80.5973C80.5693 35.134 80.3919 34.7747 80.0653 34.504C79.7479 34.224 79.3093 34.084 78.7493 34.084C78.2546 34.084 77.8532 34.2007 77.5452 34.434C77.2372 34.6674 77.0833 34.9567 77.0833 35.302C77.0833 35.6007 77.1719 35.848 77.3493 36.044C77.5359 36.2307 77.7646 36.38 78.0352 36.492C78.3059 36.5947 78.6699 36.7114 79.1273 36.842C79.6779 36.9914 80.1166 37.136 80.4433 37.276C80.7699 37.416 81.0499 37.6214 81.2832 37.892C81.5166 38.1627 81.6379 38.522 81.6473 38.97C81.6473 39.3807 81.5352 39.7494 81.3112 40.076C81.0872 40.3934 80.7746 40.6454 80.3733 40.832C79.9719 41.0187 79.5099 41.112 78.9873 41.112Z" fill="white"></path>
<path d="M86.2641 41.112C85.3867 41.112 84.6681 40.9114 84.1081 40.51C83.5574 40.0994 83.2494 39.544 83.1841 38.844H84.1921C84.2387 39.2734 84.4394 39.6234 84.7941 39.894C85.1581 40.1554 85.6434 40.286 86.2501 40.286C86.7821 40.286 87.1974 40.16 87.4961 39.908C87.8041 39.656 87.9581 39.3434 87.9581 38.97C87.9581 38.7087 87.8741 38.494 87.7061 38.326C87.5381 38.158 87.3234 38.0274 87.0621 37.934C86.8101 37.8314 86.4647 37.724 86.0261 37.612C85.4567 37.4627 84.9947 37.3134 84.6401 37.164C84.2854 37.0147 83.9821 36.7954 83.7301 36.506C83.4874 36.2074 83.3661 35.8107 83.3661 35.316C83.3661 34.9427 83.4781 34.5974 83.7021 34.28C83.9261 33.9627 84.2434 33.7107 84.6541 33.524C85.0647 33.3374 85.5314 33.244 86.0541 33.244C86.8754 33.244 87.5381 33.454 88.0421 33.874C88.5461 34.2847 88.8167 34.854 88.8541 35.582H87.8741C87.8461 35.134 87.6687 34.7747 87.3421 34.504C87.0247 34.224 86.5861 34.084 86.0261 34.084C85.5314 34.084 85.1301 34.2007 84.8221 34.434C84.5141 34.6674 84.3601 34.9567 84.3601 35.302C84.3601 35.6007 84.4487 35.848 84.6261 36.044C84.8127 36.2307 85.0414 36.38 85.3121 36.492C85.5827 36.5947 85.9467 36.7114 86.4041 36.842C86.9547 36.9914 87.3934 37.136 87.7201 37.276C88.0467 37.416 88.3267 37.6214 88.5601 37.892C88.7934 38.1627 88.9147 38.522 88.9241 38.97C88.9241 39.3807 88.8121 39.7494 88.5881 40.076C88.3641 40.3934 88.0514 40.6454 87.6501 40.832C87.2487 41.0187 86.7867 41.112 86.2641 41.112Z" fill="white"></path>
<path d="M91.3988 31.914C91.2028 31.914 91.0348 31.844 90.8948 31.704C90.7548 31.564 90.6848 31.3914 90.6848 31.186C90.6848 30.9807 90.7548 30.8127 90.8948 30.682C91.0348 30.542 91.2028 30.472 91.3988 30.472C91.5948 30.472 91.7628 30.542 91.9028 30.682C92.0428 30.8127 92.1128 30.9807 92.1128 31.186C92.1128 31.3914 92.0428 31.564 91.9028 31.704C91.7628 31.844 91.5948 31.914 91.3988 31.914ZM91.8888 33.356V41H90.9088V33.356H91.8888Z" fill="white"></path>
<path d="M95.2138 35.05C95.4658 34.518 95.8531 34.084 96.3758 33.748C96.9078 33.412 97.5331 33.244 98.2518 33.244C98.9518 33.244 99.5771 33.4074 100.128 33.734C100.679 34.0514 101.108 34.5087 101.416 35.106C101.733 35.694 101.892 36.38 101.892 37.164C101.892 37.948 101.733 38.6387 101.416 39.236C101.108 39.8334 100.674 40.2954 100.114 40.622C99.5631 40.9487 98.9425 41.112 98.2518 41.112C97.5238 41.112 96.8938 40.9487 96.3618 40.622C95.8391 40.286 95.4565 39.852 95.2138 39.32V41H94.2478V30.64H95.2138V35.05ZM100.898 37.164C100.898 36.5294 100.772 35.9834 100.52 35.526C100.277 35.0594 99.9411 34.7047 99.5118 34.462C99.0825 34.2194 98.5971 34.098 98.0558 34.098C97.5331 34.098 97.0525 34.224 96.6138 34.476C96.1845 34.728 95.8438 35.0874 95.5918 35.554C95.3398 36.0207 95.2138 36.562 95.2138 37.178C95.2138 37.794 95.3398 38.3354 95.5918 38.802C95.8438 39.2687 96.1845 39.628 96.6138 39.88C97.0525 40.132 97.5331 40.258 98.0558 40.258C98.5971 40.258 99.0825 40.1367 99.5118 39.894C99.9411 39.642 100.277 39.2827 100.52 38.816C100.772 38.34 100.898 37.7894 100.898 37.164Z" fill="white"></path>
<path d="M104.325 31.914C104.129 31.914 103.961 31.844 103.821 31.704C103.681 31.564 103.611 31.3914 103.611 31.186C103.611 30.9807 103.681 30.8127 103.821 30.682C103.961 30.542 104.129 30.472 104.325 30.472C104.521 30.472 104.689 30.542 104.829 30.682C104.969 30.8127 105.039 30.9807 105.039 31.186C105.039 31.3914 104.969 31.564 104.829 31.704C104.689 31.844 104.521 31.914 104.325 31.914ZM104.815 33.356V41H103.835V33.356H104.815Z" fill="white"></path>
<path d="M108.154 30.64V41H107.174V30.64H108.154Z" fill="white"></path>
<path d="M111.004 31.914C110.808 31.914 110.64 31.844 110.5 31.704C110.36 31.564 110.29 31.3914 110.29 31.186C110.29 30.9807 110.36 30.8127 110.5 30.682C110.64 30.542 110.808 30.472 111.004 30.472C111.2 30.472 111.368 30.542 111.508 30.682C111.648 30.8127 111.718 30.9807 111.718 31.186C111.718 31.3914 111.648 31.564 111.508 31.704C111.368 31.844 111.2 31.914 111.004 31.914ZM111.494 33.356V41H110.514V33.356H111.494Z" fill="white"></path>
<path d="M115.127 34.182V38.928C115.127 39.3947 115.215 39.7167 115.393 39.894C115.57 40.0714 115.883 40.16 116.331 40.16H117.227V41H116.177C115.486 41 114.973 40.8414 114.637 40.524C114.301 40.1974 114.133 39.6654 114.133 38.928V34.182H113.069V33.356H114.133V31.438H115.127V33.356H117.227V34.182H115.127Z" fill="white"></path>
<path d="M125.283 33.356L120.747 44.598H119.725L121.209 40.958L118.073 33.356H119.151L121.755 39.88L124.275 33.356H125.283Z" fill="white"></path>
<path d="M6.69109 19.2024C6.69109 19.2024 9.67658 23.6141 15.2211 23.6141C18.0847 23.6141 21.3139 22.4376 21.3139 20.2612C21.3139 17.9082 19.2423 16.7318 14.9164 15.9082C8.88452 14.7318 4.61953 12.4376 4.61953 7.32C4.61953 4.5353 6.65819 1.78235 10.0677 0.405884C4.34413 2.34471 0.23999 7.60706 0.23999 13.7953C0.23999 17.0035 1.34279 19.9624 3.20355 22.3388L6.69109 19.2024Z" fill="#4B54A1"></path>
<path d="M25.2853 3.72595L22.0451 6.96713C22.0451 6.96713 19.2424 3.96713 14.9774 3.96713C11.3826 3.96713 9.61572 5.67301 9.61572 7.43772C9.61572 9.49654 11.8091 10.6142 16.4397 11.5554C21.8014 12.673 26.371 14.6142 26.371 20.1436C26.371 21.6742 25.8812 22.9883 25.0526 24.0824C27.8711 21.4977 29.6283 17.8448 29.6283 13.7954C29.6283 9.85889 27.9674 6.29654 25.2853 3.72595Z" fill="#76C094"></path>
<path d="M46.0839 18.6213C48.2042 18.6213 49.374 17.6801 49.374 16.7154C49.374 15.3507 47.4731 14.9977 45.4015 14.6448C43.1593 14.2918 38.3338 13.4918 38.3338 9.37419C38.3338 5.28008 42.2576 4.17419 45.4015 4.17419C48.521 4.17419 50.4951 5.09184 52.4448 6.48008L50.3001 9.30361C48.7647 8.24478 46.9856 7.5389 45.2553 7.5389C44.1342 7.5389 42.1845 7.86831 42.1845 9.23302C42.1845 10.4565 44.1098 10.7389 45.7183 11.0683C48.6185 11.6565 53.2247 12.0095 53.2247 16.6213C53.2247 20.1977 50.3489 21.9624 46.1326 21.9624C42.282 21.9624 39.7473 20.6448 38.0901 19.2801L40.1373 16.433C41.429 17.4683 44.0367 18.6213 46.0839 18.6213Z" fill="white"></path>
<path d="M60.4873 9.98589C61.0479 9.25648 62.6564 8.40942 64.5574 8.40942C68.798 8.40942 71.2839 11.4447 71.2839 15.1624C71.2839 18.88 68.798 21.9153 64.5574 21.9153C62.6077 21.9153 61.1697 21.1624 60.4873 20.2918V25.7977H56.8804V8.69178H60.4873V9.98589ZM64.0212 18.833C66.3365 18.833 67.7013 17.28 67.7013 15.1624C67.7013 13.1153 66.2634 11.5153 64.0212 11.5153C61.7546 11.5153 60.3411 12.9035 60.3411 15.1624C60.3411 17.3035 61.7546 18.833 64.0212 18.833Z" fill="white"></path>
<path d="M75.2078 16.386V8.73889H78.8878V16.386C78.8878 18.3624 80.1064 18.9742 81.4956 18.9742C82.5192 18.9742 84.1521 18.386 84.0546 15.586V8.73889H87.7103V21.633H84.0546V20.5271C83.1772 21.3977 81.8855 21.9154 80.472 21.9154C76.6213 21.9154 75.2078 19.7271 75.2078 16.386Z" fill="white"></path>
<path d="M95.8259 15.9154V21.6331H92.1946V8.69188H95.8259V10.4095C97.1907 8.66835 99.4572 8.43305 100.408 8.45658V11.8919C99.5303 11.8213 95.8259 11.986 95.8259 15.9154Z" fill="white"></path>
<path d="M104.21 21.633V4.43298H108.06V21.633H104.21Z" fill="white"></path>
<path d="M120.563 7.65651V21.633H116.688V7.65651H111.497V4.43298H125.729V7.65651H120.563Z" fill="white"></path>
</svg>
